# xmcd CD database file
# Copyright (C) 1993-1998 Ti Kan
#
# Track frame offsets:
#	150
#	12300
#	26230
#	40392
#	55852
#	67107
#	75290
#	89152
#	100560
#	114682
#	126362
#	142927
#
# Disc length: 2067 seconds
#
# Revision: 1
# Processed by: cddbd v1.4b41PL1 Copyright (c) Steve Scherf et al.
# Submitted via: NotifyCDPlayer(CDDB) 1.50
#
DISCID=a208110c
DTITLE=Bill Harrell - Bill Harrell and Friends
DYEAR=1900
DGENRE=
TTITLE0=Are You Coming Back to Me
TTITLE1=I Could cry
TTITLE2=Are You Waiting Just For Me
TTITLE3=Sweetheart You Done Me Wrong
TTITLE4=Don't Say Goodbye If You Love Me
TTITLE5=Fireball
TTITLE6=Steal Away Somewhere and Die
TTITLE7=I want To Be Loved
TTITLE8=We'll Meet Again Sweetheart
TTITLE9=Flower Blooming in the Wildwood
TTITLE10=Willie Roy the Crippled Boy
TTITLE11=Love Please Come Home
EXTD=Bill Harrel - Vocals\nJim Buchanan - Fiddle\nJosh Graves - Dobro\nMitch
EXTD=Harrell - Vocals\nDel McCoury - Vocals\nJim McReynolds - Vocals\nDale 
EXTD=Reno - Mandolin and Vocals\nDon Wayne Reno - Banjo, Lead Guitar and Voc
EXTD=als\nRonnie Reno - Guitar and Vocals\nBuddy Spicher - Fiddle and Mandol
EXTD=in\nDavid Spicher - Bass\nMac Wiseman - Vocals
EXTT0=
EXTT1=
EXTT2=
EXTT3=
EXTT4=
EXTT5=
EXTT6=
EXTT7=
EXTT8=
EXTT9=
EXTT10=
EXTT11=
PLAYORDER=
